<?xml version="1.0" encoding="UTF-8"?> <svg xmlns="http://www.w3.org/2000/svg" id="Layer_2" data-name="Layer 2" viewBox="0 0 587.7 227.2"><defs><style> .cls-1, .cls-2 { fill: #fff; } .cls-3 { fill: #3fa35a; } .cls-2 { font-family: FuturaPT-Bold, 'Futura PT'; font-size: 38.79px; font-weight: 700; } </style></defs><g id="Layer_5" data-name="Layer 5"><g><g><path class="cls-1" d="m219.77,73.62c-2.8,1.04-4.34,1.37-6.09,1.37-4.71.03-8.26-1.82-10.5-4-2.66-2.63-4.14-6.32-4.15-9.86-.02-3.86,1.62-7.52,4.05-10.01,2.39-2.45,6-4.26,10.22-4.28,1.3,0,3.41.18,6.34,1.35l.04,8.41c-2.29-2.79-4.97-2.94-6.15-2.94-2.03.01-3.57.63-4.87,1.81-1.66,1.56-2.34,3.67-2.33,5.58,0,1.87.79,3.94,2.22,5.27,1.19,1.09,3.06,1.85,5.05,1.84,1.06,0,3.66-.14,6.12-2.87l.04,8.32Z"></path><polygon class="cls-1" points="239.54 53.12 231.17 53.17 231.19 57.68 239.11 57.64 239.14 63.61 231.22 63.65 231.25 68.32 239.62 68.28 239.64 74.25 224.24 74.33 224.11 47.23 239.51 47.15 239.54 53.12"></polygon><polygon class="cls-1" points="244.11 74.23 243.97 47.13 251.01 47.1 264.05 63.6 263.96 47.03 270.99 47 271.13 74.1 264.1 74.13 251.06 57.62 251.14 74.2 244.11 74.23"></polygon><polygon class="cls-1" points="286.95 52.89 287.05 74.02 280.03 74.05 279.92 52.92 274.15 52.95 274.12 46.98 292.69 46.89 292.72 52.86 286.95 52.89"></polygon><path class="cls-1" d="m306.78,46.82c2.03-.01,4.63.3,6.63,2.36,1.55,1.58,2.34,3.93,2.35,6.08.01,2.32-.79,4.36-2.13,5.66-1.05,1.02-2.47,1.63-3.73,1.89l8.55,11.05-8.73.04-6.8-10.36.05,10.4-7.03.03-.14-27.1,10.97-.05Zm-3.88,12.17h1.34c1.06-.01,2.56-.31,3.41-1.13.52-.53.89-1.42.88-2.28,0-.81-.34-1.71-.95-2.27-.65-.65-1.83-1.05-3.38-1.03h-1.34s.03,6.71.03,6.71Z"></path><path class="cls-1" d="m328.32,46.71l.08,16.05c0,1.14.05,2.89,1.4,4.18.82.76,2.12,1.29,3.34,1.28,1.22,0,2.48-.5,3.24-1.2,1.62-1.43,1.57-3.42,1.56-4.92l-.08-15.44,7.03-.04.08,15.56c.01,2.85-.09,5.81-3,8.79-2.26,2.32-5.11,3.4-8.92,3.41-4.27.02-7.32-1.42-8.99-3.2-2.37-2.55-2.67-6-2.68-8.89l-.08-15.56,7.03-.04Z"></path><polygon class="cls-1" points="357.61 46.56 357.72 67.69 366.17 67.65 366.19 73.62 350.72 73.7 350.58 46.6 357.61 46.56"></polygon><path class="cls-1" d="m379.27,73.56l-.14-27.1,9.22-.05c2.72-.01,7.27.33,10.78,3.68,3.19,3.03,3.82,6.93,3.83,9.85.02,3.57-.86,6.75-3.48,9.4-2.14,2.17-5.75,4.14-10.38,4.16l-9.83.05Zm7-6.01h1.42c1.71-.02,4.1-.2,5.92-1.99.89-.86,2.06-2.57,2.04-5.58-.01-2.52-.8-4.67-2.14-5.92-1.67-1.53-3.87-1.69-5.62-1.68h-1.7s.08,15.17.08,15.17Z"></path><polygon class="cls-1" points="422.8 52.2 414.43 52.25 414.45 56.76 422.38 56.71 422.41 62.69 414.49 62.73 414.51 67.41 422.88 67.36 422.91 73.33 407.51 73.41 407.37 46.31 422.77 46.23 422.8 52.2"></polygon><path class="cls-1" d="m220.03,124.1c-2.8,1.04-4.34,1.37-6.08,1.37-4.71.03-8.26-1.82-10.51-4-2.65-2.63-4.13-6.32-4.15-9.86-.02-3.86,1.63-7.52,4.05-10.01,2.39-2.45,5.99-4.26,10.22-4.28,1.3,0,3.41.18,6.34,1.35l.04,8.41c-2.29-2.79-4.97-2.94-6.15-2.94-2.03.01-3.57.63-4.87,1.81-1.66,1.56-2.34,3.67-2.33,5.58,0,1.87.79,3.94,2.22,5.27,1.19,1.09,3.06,1.85,5.05,1.84,1.06,0,3.66-.14,6.12-2.87l.04,8.32Z"></path><path class="cls-1" d="m231.39,97.67l.08,16.05c0,1.14.05,2.89,1.4,4.18.82.76,2.12,1.29,3.34,1.28,1.22,0,2.48-.5,3.24-1.2,1.62-1.43,1.57-3.42,1.56-4.92l-.08-15.44,7.03-.03.08,15.56c.01,2.85-.1,5.81-3,8.79-2.27,2.32-5.1,3.4-8.92,3.41-4.27.02-7.32-1.42-9-3.2-2.37-2.55-2.67-6-2.68-8.89l-.08-15.56,7.03-.04Z"></path><polygon class="cls-1" points="260.68 97.52 260.79 118.65 269.24 118.61 269.27 124.58 253.79 124.66 253.65 97.56 260.68 97.52"></polygon><polygon class="cls-1" points="280.5 103.4 280.6 124.53 273.58 124.56 273.47 103.43 267.7 103.46 267.67 97.49 286.24 97.4 286.27 103.37 280.5 103.4"></polygon><path class="cls-1" d="m296.39,97.35l.08,16.05c0,1.14.05,2.89,1.4,4.18.82.76,2.12,1.29,3.34,1.28,1.22,0,2.48-.5,3.24-1.2,1.62-1.43,1.57-3.42,1.56-4.92l-.08-15.44,7.03-.03.08,15.56c.01,2.85-.09,5.81-3,8.79-2.26,2.32-5.1,3.4-8.92,3.41-4.27.02-7.32-1.42-9-3.2-2.37-2.55-2.67-6-2.68-8.89l-.08-15.56,7.03-.04Z"></path><path class="cls-1" d="m329.63,97.18c2.03-.01,4.63.3,6.63,2.37,1.55,1.57,2.34,3.93,2.35,6.08.01,2.32-.79,4.36-2.12,5.66-1.05,1.01-2.47,1.63-3.73,1.89l8.55,11.05-8.73.04-6.8-10.37.05,10.4-7.03.04-.14-27.1,10.97-.06Zm-3.88,12.17h1.34c1.06-.01,2.56-.31,3.41-1.13.53-.52.89-1.42.88-2.27,0-.81-.34-1.71-.95-2.27-.65-.65-1.83-1.05-3.38-1.04h-1.34s.03,6.71.03,6.71Z"></path><path class="cls-1" d="m360.77,119.58l-9.83.05-1.8,4.55-7.44.04,10.26-27.15,7.68-.04,10.34,27.04-7.52.04-1.69-4.54Zm1.92-31.1c-.03,2.56-1.4,4.07-1.76,4.44-1.62,1.63-3.72,1.85-5.27,1.86-1.54,0-3.66-.18-5.29-1.81-.37-.36-1.76-1.86-1.81-4.42l4.18-.02c.08.65.41,1.3.82,1.67.49.44,1.34.72,2.07.71.73,0,1.59-.29,2.07-.74.41-.37.73-1.02.81-1.67l4.18-.02Zm-3.81,25.74l-3.09-8.76-2.93,8.79,6.01-.03Z"></path><path class="cls-1" d="m389.47,96.88l.08,16.05c0,1.14.05,2.89,1.4,4.18.82.77,2.12,1.29,3.34,1.29,1.22,0,2.48-.5,3.24-1.2,1.62-1.42,1.57-3.41,1.56-4.92l-.08-15.44,7.03-.04.08,15.56c.01,2.85-.09,5.81-3,8.79-2.26,2.32-5.1,3.4-8.92,3.42-4.27.02-7.32-1.42-9-3.21-2.37-2.55-2.67-6-2.68-8.89l-.08-15.56,7.03-.04Z"></path><path class="cls-1" d="m422.7,96.71c2.03,0,4.63.31,6.63,2.37,1.55,1.58,2.34,3.93,2.35,6.08.01,2.32-.79,4.36-2.12,5.66-1.05,1.02-2.47,1.63-3.73,1.89l8.55,11.05-8.73.04-6.8-10.36.05,10.4-7.03.03-.14-27.1,10.97-.05Zm-3.88,12.18h1.34c1.06-.01,2.56-.31,3.41-1.13.53-.53.89-1.42.89-2.28,0-.81-.34-1.71-.95-2.27-.65-.65-1.83-1.05-3.38-1.04h-1.34s.03,6.72.03,6.72Z"></path><path class="cls-1" d="m437.34,123.74l-.14-27.1,10.48-.05c1.95-.01,4.27.27,5.95,2.08.94,1.01,1.68,2.67,1.69,5.07,0,1.18-.19,2.19-.75,3.33-.57,1.06-1.17,1.67-2.18,2.13,1.42.15,2.85.8,3.71,1.6,1.1,1.05,1.84,2.8,1.85,4.95.01,2.56-.95,4.31-1.97,5.33-1.45,1.52-4,2.58-7.34,2.59l-11.29.06Zm6.95-16.45h1.3c.73-.01,1.95-.1,2.67-.87.45-.46.65-1.19.64-1.79,0-.7-.25-1.39-.66-1.82-.45-.45-1.31-.81-2.69-.8h-1.3s.03,5.29.03,5.29Zm.05,10.93h1.58c1.95-.02,3.57-.23,4.34-1.13.32-.37.56-.97.56-1.75,0-.85-.29-1.54-.7-1.95-.86-.85-2.61-.88-4.35-.87h-1.46s.03,5.69.03,5.69Z"></path><path class="cls-1" d="m478.96,118.99l-9.83.05-1.8,4.55-7.44.04,10.26-27.15,7.68-.04,10.34,27.05-7.52.04-1.69-4.54Zm-1.89-5.36l-3.09-8.76-2.92,8.79,6.01-.03Z"></path><polygon class="cls-1" points="491.29 123.47 491.15 96.37 498.18 96.34 511.23 112.84 511.14 96.27 518.17 96.24 518.31 123.34 511.28 123.37 498.24 106.86 498.32 123.44 491.29 123.47"></polygon><path class="cls-1" d="m540.51,118.68l-9.83.05-1.8,4.55-7.44.04,10.26-27.15,7.68-.04,10.34,27.05-7.52.04-1.69-4.54Zm1.92-31.1c-.03,2.56-1.4,4.07-1.76,4.44-1.62,1.64-3.73,1.85-5.27,1.86-1.54,0-3.66-.18-5.29-1.81-.37-.36-1.76-1.86-1.81-4.42l4.18-.02c.08.65.41,1.3.82,1.66.49.44,1.34.72,2.07.72.73,0,1.59-.3,2.07-.74.41-.37.73-1.02.81-1.68l4.18-.02Zm-3.81,25.74l-3.09-8.76-2.92,8.79,6.01-.03Z"></path></g><text class="cls-2" transform="translate(196.36 170.89)"><tspan x="0" y="0">Centrul pentru Tineret</tspan></text></g><g><polygon class="cls-3" points="140.13 145.58 30.61 208.81 30.61 82.34 140.13 19.11 140.13 145.58"></polygon><path class="cls-1" d="m170.66,34.6c-.03-.23-.1-.44-.18-.66-.24-.74-.66-1.42-1.36-1.81-.16-.1-.36-.08-.53-.15L114.37.39c-.11-.06-.24-.06-.36-.11-.21-.1-.42-.18-.66-.23-.19-.03-.37-.03-.57-.05-.21,0-.42,0-.65.05-.21.05-.4.13-.6.21-.13.05-.27.05-.39.13L1.62,63.62s-.08.1-.15.13c-.11.08-.23.16-.32.26-.11.1-.23.19-.32.32-.1.1-.18.21-.26.32-.03.05-.1.08-.13.15-.03.05-.03.11-.05.18-.08.13-.13.26-.18.39-.05.15-.08.29-.11.44-.03.15-.05.27-.05.4,0,.08-.05.13-.05.21l.02,125.87c0,.13.05.26.06.39.03.23.06.44.15.65.06.19.16.37.26.55.11.18.21.34.34.5.15.18.32.31.5.45.11.08.18.18.29.26l54.43,31.35c.13.1.19.24.34.32.5.29,1.05.44,1.6.44s1.12-.15,1.62-.44l27.39-15.85,82.13-47.56c1-.57,1.62-1.63,1.62-2.78V34.91c0-.1-.06-.19-.08-.31m-6.37,46.51l-25.22,13.8v-14.06l25.22-14.29v14.55Zm0-21.04l-30.94,17.12v99.2l-2.47,1.66v-98.28l-34.87,20.29.81,97.71-2.1,1.22-1.08-98.44-32.42,17.89v-18.27l42.7-24.73,11.2-6.48,1.5-.87,14.67-8.5,15.32-8.86,17.68-10.25v19.58Zm-62.6,43.23l23.53-13.69v12.84l-23.43,13.19-.1-12.34Zm-23.82,33.02l10.44-5.86.11,9.89-10.4,5.88-.15-9.9Zm-16.65,9.35l11.04-6.2.15,9.93-11.19,6.33v-10.06Zm0-6.49v-14.27l26.87-14.83.15,13.93-27.02,15.17Zm-6.45,79.08l-48.32-27.83v-118.41l48.32,28.15v118.09ZM9.65,66.44L112.75,6.9l48.21,28.09-22.43,12.99-27.39,15.85-53.14,30.77-48.35-28.17Zm51.57,95.79l11.29-6.39.84,55.53-12.13,7.03v-56.17Zm20.93,44.05l-3.19,1.84-.84-55.45,10.37-5.86.61,55.45-.51.29-6.45,3.73Zm27.39-15.85l-7.08,4.1-.6-72.42,23.37-13.16v72.39l-9.26,5.36-6.43,3.73Zm42.88-36.7l4.82,9.08-8.02,4.64,3.2-13.72Zm-2.6-7.98l-2.65,1.45v-20.1l9.36-5.06v20.02l-5.87,3.22-.84.47Zm11.56,14.67l-6.31-12.03,6.3-3.46v-31.01l-7.09,3.83h0s0-7.66,0-7.66l-4.85,2.66v7.62l-7.11,3.84v31.21l5.43-2.99-4.83,18.68-3.85,2.38v-72.12l25.22-13.8v71.17l-2.92,1.69Z"></path></g></g></svg> 