<?xml version="1.0" encoding="UTF-8"?>
<svg id="Layer_2" data-name="Layer 2" xmlns="http://www.w3.org/2000/svg" viewBox="0 0 1435.3 74.3">
  <defs>
    <style>
      .cls-1, .cls-2 {
        stroke-width: 0px;
      }

      .cls-2 {
        fill: #ed1c24;
      }
    </style>
  </defs>
  <g id="Layer_1-2" data-name="Layer 1">
    <g>
      <path class="cls-1" d="m228.6,62.9c-5.2-7.4-7.5-16.8-7.5-25.8C221.1,18,230.6.2,251.9.2c9.5,0,17.1,3.1,22.9,11,5.1,7,7.8,17.2,7.8,25.9,0,8.2-2.2,18.1-6.8,25-5.6,8.2-14.1,12.2-23.8,12.2-9.9-.1-17.8-3.4-23.4-11.4m12.3-40.8c-1.7,4.3-2.3,10.5-2.3,15,0,9,1.3,23.4,13.2,23.4,5.8,0,8.9-2.8,10.8-8.1,1.7-4.4,2.2-10.4,2.2-15.1,0-5.2-.5-11.4-2.6-16.2s-5.1-7-10.4-7c-5.7-.1-8.9,2.8-10.9,8"/>
      <polygon class="cls-1" points="428.9 73.2 412.4 73.2 400.6 25.6 400.4 25.6 389.1 73.2 372.7 73.2 354.2 1.3 371.4 1.3 382.4 49.7 382.6 49.7 394.2 1.3 409.7 1.3 421.8 49.7 422 49.7 422.6 46.6 433.1 1.3 446.9 1.3 428.9 73.2"/>
      <polygon class="cls-1" points="721.9 73.2 712.9 73.2 712.9 9.1 692.5 9.1 692.5 1.3 742.4 1.3 742.4 9.1 721.9 9.1 721.9 73.2"/>
      <path class="cls-1" d="m846.1,73.2l-13.3-31.1h-19.9v31.1h-9V1.3h27c5.9,0,11.5.7,16.4,4.4,4.8,3.7,7.6,9.6,7.6,15.7,0,8.5-5,16.2-13.4,18.5l14.2,33.3h-9.6Zm-16.3-38.5c4.8,0,8.8-.3,12.4-4,2.5-2.5,3.7-6,3.7-9.4,0-4.2-1.6-7.7-5-10-3.1-2.2-6.2-2.3-10-2.3h-17.9v25.7s16.8,0,16.8,0Z"/>
      <path class="cls-1" d="m972.8,73.2h-9.2l-7.2-21h-26.6l-6.4,21h-7.5L939.2,1.3h10.4l23.2,71.9Zm-29.5-62.3l-11.1,34.5h22.1l-11-34.5Z"/>
      <path class="cls-1" d="m1040,1.3h22.7c10.3,0,17.9,2.1,24.7,10.2,6.2,7.2,8.7,16.3,8.7,25.6,0,8.8-2.3,17.5-7.5,24.7-5.8,8.1-13.2,11.4-23,11.4h-25.6V1.3Zm22.3,64.2c8.3,0,14.9-1.9,19.6-9.1,3.6-5.5,5.2-12.9,5.2-19.4,0-7.3-1.9-15-6.6-20.9-4.9-6.2-10.7-7.3-18.3-7.3h-13.2v56.7h13.3Z"/>
      <polygon class="cls-1" points="1211.4 73.2 1164.9 73.2 1164.9 1.3 1210.4 1.3 1210.4 9 1173.9 9 1173.9 31.9 1202.8 31.9 1202.8 39.1 1173.9 39.1 1173.9 65.5 1211.4 65.5 1211.4 73.2"/>
      <path class="cls-1" d="m1319.1,73.2l-13.3-31.1h-19.9v31.1h-9V1.3h26.9c5.9,0,11.5.7,16.3,4.4,4.8,3.7,7.7,9.6,7.7,15.7,0,8.5-5,16.2-13.4,18.5l14.2,33.3h-9.5Zm-16.3-38.5c4.8,0,8.8-.3,12.4-4,2.5-2.5,3.7-6,3.7-9.4,0-4.2-1.6-7.7-5-10-3.1-2.2-6.2-2.3-9.9-2.3h-17.9v25.7s16.7,0,16.7,0Z"/>
      <path class="cls-1" d="m1387.5,52c2.9,10,11.2,14.6,21.3,14.6,4.3,0,9.5-1,12.9-3.6,2.7-2.1,4.4-5.8,4.4-9.2,0-7.2-6-10.2-12.3-11.7l-12-2.9c-4.8-1.1-9.2-2.3-13-5.8-3.8-3.4-5.9-8.3-5.9-13.3,0-13.8,12-19.8,24.4-19.8s21.7,6,25.6,17.6l-8.2,2.2c-1.6-7.9-10-12.7-17.6-12.7-6.8,0-15.4,3.6-15.4,11.4s6.3,9.9,13,11.4l10.8,2.6c4.7,1.1,9.4,2.4,13.1,5.6,4.5,3.7,6.7,8.6,6.7,14.2,0,6.5-2.8,12.4-8.1,16.4-5.2,4-12.3,5.2-18.8,5.2-14.7,0-24.3-6.5-29.2-20.4l8.3-1.8Z"/>
      <rect class="cls-2" x="538.6" width="72.2" height="72.2"/>
      <polygon class="cls-1" points="16.8 15.2 16.8 31.6 44.2 31.6 44.2 45.1 16.8 45.1 16.8 73.2 0 73.2 0 1.3 51.2 1.3 51.2 15.2 16.8 15.2"/>
      <polygon class="cls-1" points="160.2 58.9 160.2 73.2 114.5 73.2 114.5 1.3 131.3 1.3 131.3 58.9 160.2 58.9"/>
    </g>
  </g>
</svg>