<?xml version="1.0" encoding="utf-8"?>
<!-- Generator: Adobe Illustrator 26.0.3, SVG Export Plug-In . SVG Version: 6.00 Build 0)  -->
<svg version="1.0" id="katman_1" xmlns="http://www.w3.org/2000/svg" xmlns:xlink="http://www.w3.org/1999/xlink" x="0px" y="0px"
	 viewBox="0 0 600 450" style="enable-background:new 0 0 600 450;" xml:space="preserve">
<style type="text/css">
	.st0{fill:#FFFFFF;filter:url(#Adobe_OpacityMaskFilter);}
	.st1{mask:url(#yardi-logo-gradient_00000039818747899070248820000011975136336868786598_);}
	.st2{fill:#FFFFFF;}
	.st3{fill:url(#logo-gradient_00000040547729805505081310000003343441764644345278_);}
</style>
<defs>
	<filter id="Adobe_OpacityMaskFilter" filterUnits="userSpaceOnUse" x="81.6" y="170.7" width="437.1" height="109.3">
		<feColorMatrix  type="matrix" values="1 0 0 0 0  0 1 0 0 0  0 0 1 0 0  0 0 0 1 0"/>
	</filter>
</defs>
<mask maskUnits="userSpaceOnUse" x="81.6" y="170.7" width="437.1" height="109.3" id="yardi-logo-gradient_00000039818747899070248820000011975136336868786598_">
	<path class="st0" d="M81.6,278.2v-44.3l77-62.9v45.6L81.6,278.2z M95.5,221.7l-14-7.8V171l14,8.1V221.7z M201.5,222.4l-18.3-48.9
		h21.2l9.4,32.7l21.9-32.7h24.7l-38.7,49.1l-6.3,29.6h-20.2L201.5,222.4z M278.8,173.5h20.7l12.9,78.7h-20.6l-1.8-14.1h-27.8
		l-8,14.1h-21.6L278.8,173.5z M270.1,222.9h18.1l-3.1-28.2h-0.2L270.1,222.9z M333.6,173.5h38.7c8.1,0,14.1,1.2,18.1,3.8
		c4.8,3.2,7.2,8.7,7.2,16.4c0,12.9-6,20.2-17.9,21.9v0.2c5.4,1.4,8,5.7,8,13.2c0,2,0,4.6-0.2,7.8c-0.2,3.2-0.2,5.5-0.2,6.9
		c0,4.1,0.5,6.9,1.2,8.3h-20.6c-0.5-2-0.6-3.5-0.6-4.4c0-1.2,0.2-3.4,0.3-6.4c0.2-2.9,0.3-5.4,0.3-7.4c0-7.1-3.4-10.6-10.1-10.6
		h-13.7l-6.4,29h-20.6L333.6,173.5z M346.9,208.3h16.3c9.2,0,13.8-3.7,13.8-10.9c0-5.5-3.7-8.1-11-8.1h-15L346.9,208.3z
		 M414.4,173.5h29.4c23.3,0,35.1,11,35.1,33.3c0,13-3.7,23.6-11.2,31.9c-8.3,9-19.9,13.5-34.8,13.5h-35.3L414.4,173.5z M422.1,234.5
		h13.5c8,0,14-3.1,18.1-9.2c3.2-4.8,4.8-10.4,4.8-16.9c0-11.7-5.2-17.5-15.5-17.5h-11.8L422.1,234.5z M497.8,173.5h20.6L502,252.2
		h-20.7L497.8,173.5z"/>
</mask>
<g class="st1">
	<rect x="81.6" y="170.7" class="st2" width="437.1" height="109.3"/>
	
		<linearGradient id="logo-gradient_00000088106405538893445110000014927178412831096988_" gradientUnits="userSpaceOnUse" x1="2.6567" y1="441.3492" x2="5.7047" y2="441.4722" gradientTransform="matrix(124 0 0 -31 -243.9449 13909.3623)">
		<stop  offset="0" style="stop-color:#2871B8"/>
		<stop  offset="1" style="stop-color:#3779BE"/>
	</linearGradient>
	
		<rect id="logo-gradient" x="81.6" y="170.7" style="fill:url(#logo-gradient_00000088106405538893445110000014927178412831096988_);" width="437.1" height="109.3"/>
</g>
</svg>
